<svg width="136" height="132" viewBox="0 0 136 132" fill="none" xmlns="http://www.w3.org/2000/svg">
<path d="M103.905 87.57C102.188 87.763 100.662 87.884 99.1592 88.141C98.9412 88.2044 98.74 88.3154 98.5702 88.466C98.4004 88.6167 98.2661 88.8032 98.1772 89.012C96.188 94.9196 92.9138 100.313 88.5902 104.803C88.4407 105.064 88.3518 105.356 88.33 105.656C88.3082 105.956 88.354 106.258 88.4642 106.538C91.1805 113.291 93.1945 120.306 94.4742 127.472C94.6162 128.28 94.7642 129.087 94.8822 129.898C95.0202 130.854 94.8632 131.721 93.7272 131.874C92.7182 132.01 92.3412 131.368 92.1162 130.431C90.7372 124.66 89.3542 118.889 87.8542 113.149C87.3542 111.238 86.5072 109.417 85.7542 107.382C85.1872 107.776 84.7822 108.049 84.3862 108.335C78.3432 112.705 71.9172 116.217 64.4312 117.445C60.5224 118.101 56.5219 117.966 52.6659 117.05C48.8098 116.134 45.1764 114.455 41.9802 112.111C34.9242 107.211 29.7172 100.621 25.2742 93.392C17.5932 80.892 12.2892 67.343 8.36818 53.292C5.53718 43.143 3.39419 32.802 0.96819 22.54C0.64619 21.174 1.17519 20.484 2.57619 20.313C20.1292 18.173 37.5092 18.802 54.5862 23.748C60.8173 25.5377 66.7896 28.129 72.3532 31.457C72.6042 30.594 72.8362 29.845 73.0412 29.089C75.5851 19.5669 79.5421 10.4799 84.7802 2.13101C85.0301 1.63268 85.4359 1.2296 85.9359 0.983033C86.4359 0.736466 87.0027 0.659901 87.5502 0.765015C99.7302 1.98702 109.982 7.33503 118.871 15.474C126.295 22.274 131.764 30.374 134.057 40.309C136.966 52.909 133.446 63.836 124.957 73.314C120.083 78.756 114.567 83.378 107.738 86.262C107.467 86.458 107.238 86.706 107.064 86.9915C106.889 87.277 106.774 87.5944 106.723 87.925C105.151 95.2432 102.773 102.365 99.6322 109.159C99.5042 109.438 99.3852 109.722 99.2542 110C98.8542 110.833 98.2762 111.387 97.3112 110.947C96.3752 110.521 96.3112 109.756 96.7112 108.88C97.2432 107.715 97.7702 106.547 98.2672 105.366C100.713 99.6287 102.601 93.6692 103.905 87.57ZM62.9052 72.087C62.5052 71.612 62.3172 71.38 62.1172 71.161C56.3606 64.7166 49.9924 58.8458 43.1022 53.631C36.8922 49.012 30.3592 44.831 23.9422 40.491C23.0422 39.885 22.2422 39.291 22.9312 38.177C23.5802 37.127 24.5122 37.529 25.3532 38.057C25.5262 38.166 25.7102 38.257 25.8872 38.357C35.9371 44.2839 45.3483 51.2324 53.9712 59.092C54.3152 59.402 54.6642 59.706 55.3292 60.292C55.1592 58.892 55.1042 57.969 54.9292 57.07C54.2502 53.605 53.5582 50.143 52.8142 46.692C52.6082 45.737 52.7702 44.892 53.7142 44.769C54.2452 44.702 54.9062 45.369 55.4402 45.795C55.6402 45.954 55.6832 46.352 55.7402 46.652C56.5742 51.39 57.4502 56.121 58.1962 60.873C58.3593 62.376 58.9815 63.7923 59.9782 64.929C65.0092 70.619 69.8882 76.443 74.7892 82.247C75.6652 83.284 76.3842 84.453 77.4562 85.953C77.7722 82.953 78.0672 80.415 78.2792 77.868C78.2472 77.4166 78.0748 76.9866 77.7862 76.638C72.7982 69.455 70.7072 61.357 70.2932 52.751C70.0354 46.9486 70.4786 41.1363 71.6132 35.44C71.7722 34.624 71.6342 34.218 70.9302 33.852C68.9742 32.834 67.0842 31.685 65.0942 30.742C56.1792 26.6615 46.6655 24.0424 36.9182 22.985C27.625 21.9157 18.2512 21.7312 8.92318 22.434C7.26218 22.543 5.6112 22.807 3.8232 23.014C4.8232 27.665 5.70119 32.085 6.72319 36.471C10.4822 52.58 15.3872 68.304 22.8002 83.15C27.2062 91.973 32.3922 100.271 39.8582 106.899C45.9192 112.279 52.8642 115.429 61.1502 114.948C66.3908 114.586 71.4738 113.002 75.9922 110.323C78.9522 108.631 81.7662 106.682 84.6682 104.833C83.7142 102.867 82.9782 101.233 82.1142 99.663C81.9664 99.4708 81.7742 99.3172 81.5541 99.2155C81.3339 99.1138 81.0924 99.0669 80.8502 99.079C71.8269 100.798 62.5047 100.002 53.9032 96.779C52.9282 96.43 51.9442 96.061 52.3622 94.772C52.7922 93.449 53.8282 93.772 54.7802 94.124C61.1551 96.4767 67.9518 97.469 74.7332 97.037C76.5402 96.93 78.3332 96.598 80.1742 96.365C80.1512 96.1407 80.1043 95.9194 80.0342 95.705C76.0518 88.5725 71.3615 81.859 66.0342 75.666C65.5563 75.2358 64.9478 74.9784 64.3062 74.935C61.1522 74.549 57.9452 74.463 54.8372 73.857C50.3212 72.976 45.8722 71.745 41.3992 70.648C40.4992 70.428 39.8432 69.886 40.1432 68.89C40.1897 68.6866 40.2821 68.4966 40.4135 68.3345C40.5448 68.1724 40.7116 68.0425 40.9009 67.9548C41.0902 67.8672 41.2971 67.8241 41.5057 67.8288C41.7143 67.8335 41.919 67.8859 42.1042 67.982C42.7832 68.208 43.4922 68.341 44.1802 68.541C50.281 70.3844 56.5607 71.5731 62.9132 72.087H62.9052ZM104.712 55.205C103.437 43.9101 99.9511 32.9766 94.4532 23.028C93.2752 20.869 91.8412 18.85 90.6822 16.682C90.4202 16.191 90.8102 15.351 90.9002 14.671C91.5802 14.7557 92.2486 14.9157 92.8932 15.148C93.2542 15.32 93.4802 15.848 93.6932 16.255C96.3732 21.438 99.1652 26.569 101.659 31.841C103.034 34.746 103.902 37.891 105.067 41.117C106.74 37.3137 107.891 33.3022 108.491 29.191C108.638 28.164 108.915 27.283 110.118 27.411C111.379 27.545 111.354 28.57 111.269 29.536C111.246 29.791 111.231 30.049 111.187 30.301C110.316 35.1468 108.834 39.8625 106.775 44.335C106.431 45.2149 106.327 46.1708 106.475 47.104C107.101 51.773 107.941 56.415 108.482 61.093C108.832 64.125 108.798 67.201 108.935 70.257L109.228 70.521C109.439 70.186 109.641 69.845 109.863 69.521C112.073 66.255 114.527 63.121 116.426 59.686C117.889 56.6994 119.148 53.617 120.194 50.46C120.528 49.593 120.95 48.936 121.954 49.184C123.066 49.459 123.139 50.318 122.882 51.265C122.828 51.465 122.75 51.653 122.69 51.849C120.207 60.3133 115.602 68.0024 109.311 74.186C108.933 74.5132 108.665 74.9495 108.544 75.435C108.226 77.962 108 80.5 107.739 83.073C107.996 82.9953 108.248 82.9042 108.495 82.8C109.049 82.532 109.595 82.256 110.139 81.96C115.06 79.153 119.451 75.5055 123.112 71.183C130.824 62.421 133.978 52.372 131.312 40.815C129.55 33.5423 125.929 26.8517 120.805 21.398C112.152 11.85 101.615 5.62403 88.7422 3.65903C88.3328 3.52458 87.8887 3.54145 87.4907 3.7066C87.0927 3.87176 86.7672 4.17422 86.5732 4.55902C77.3782 20.259 71.8882 36.915 73.3272 55.371C73.7889 62.2638 76.0494 68.9152 79.8832 74.662C85.5732 83.132 93.9002 86.725 103.004 84.762C103.5 84.7195 103.962 84.4954 104.303 84.1327C104.643 83.7701 104.838 83.2944 104.849 82.797C105.94 75.6855 106.255 68.4766 105.79 61.297C105.787 60.6449 105.631 60.0026 105.336 59.4211C105.041 58.8395 104.615 58.3348 104.09 57.947C97.5649 52.9213 91.8593 46.9131 87.1772 40.137C86.5822 39.254 86.3032 38.417 87.3442 37.764C88.3112 37.158 88.9162 37.799 89.5012 38.564C91.3402 40.964 93.0802 43.475 95.1382 45.681C98.2052 48.971 101.514 52.041 104.72 55.205H104.712ZM95.5362 87.974C89.7432 87.262 85.1362 84.574 81.0112 80.566C80.5242 83.594 80.0632 86.397 79.6382 89.205C79.6052 89.419 79.7992 89.681 79.9212 89.905C82.2282 94.064 84.5412 98.219 86.8952 102.452C90.8327 98.3397 93.7894 93.3903 95.5442 87.974H95.5362Z" fill="#C0C0C0"/>
</svg>
